<svg width="250" height="172" viewBox="0 0 250 172" fill="none" xmlns="http://www.w3.org/2000/svg">
<path opacity="0.1" d="M77.1933 8.61593C85.6753 1.06408 98.9893 -0.484054 111.11 0.11719C149.176 2.01096 183.536 20.391 213.26 41.1848C224.021 48.7105 234.614 56.8229 241.598 67.1893C255.827 88.2909 251.599 117.522 231.83 134.906C225.101 140.82 216.948 145.363 208.576 149.374C193.691 156.519 177.63 162.256 160.736 163.897C148.691 165.058 136.495 164.114 124.517 162.491C91.0561 157.942 58.2169 147.904 30.6802 130.732C18.6061 123.201 7.22613 113.837 2.24901 101.658C-2.72811 89.4789 0.457369 74.0266 12.7869 66.803C17.886 63.82 23.984 62.4723 29.9513 61.2059C38.7382 59.3441 47.6645 57.5084 55.5919 53.7238C63.7835 49.8142 73.4793 42.2536 71.8532 33.5981C70.1225 24.3238 68.7229 16.1678 77.1933 8.61593Z" fill="#333333"/>
<path d="M156.892 16.0201L66.5933 35.395L93.3631 160.159L183.662 140.784L156.892 16.0201Z" fill="#E0E0E0"/>
<g opacity="0.5">
<path opacity="0.5" d="M155.82 18.4571L68.5732 37.1772L94.4382 157.724L181.685 139.004L155.82 18.4571Z" fill="url(#paint0_linear)"/>
</g>
<path d="M154.898 19.5827L69.8726 37.8262L95.1661 155.71L180.192 137.466L154.898 19.5827Z" fill="#FAFAFA"/>
<path d="M132.491 19.0448L90.3105 28.0952L92.5029 38.3128L134.683 29.2624L132.491 19.0448Z" fill="url(#paint1_linear)"/>
<path d="M109.258 13.5901C106.001 14.2896 103.941 17.5588 104.657 20.8914C105.374 24.2241 108.592 26.3627 111.842 25.6632C115.093 24.9637 117.159 21.6945 116.443 18.3618C115.727 15.0292 112.514 12.8906 109.258 13.5901ZM111.301 23.1209C110.613 23.2851 109.892 23.2406 109.229 22.9931C108.566 22.7456 107.992 22.3064 107.579 21.7314C107.167 21.1564 106.935 20.4716 106.914 19.7644C106.892 19.0571 107.081 18.3595 107.458 17.7603C107.834 17.1611 108.38 16.6875 109.027 16.3998C109.673 16.1122 110.39 16.0236 111.088 16.1452C111.785 16.2669 112.43 16.5933 112.94 17.0829C113.451 17.5725 113.805 18.2031 113.956 18.8944C114.06 19.3462 114.074 19.8143 113.997 20.2716C113.92 20.7289 113.754 21.1665 113.507 21.5592C113.26 21.952 112.938 22.2921 112.56 22.5601C112.182 22.8281 111.754 23.0187 111.301 23.1209Z" fill="url(#paint2_linear)"/>
<path d="M131.952 18.7018L90.6606 27.5615L92.7563 37.3287L134.048 28.4689L131.952 18.7018Z" fill="#000000"/>
<path d="M109.258 13.5904C108.117 13.8354 107.074 14.4133 106.261 15.2511C105.448 16.0889 104.902 17.1489 104.691 18.2971C104.481 19.4453 104.616 20.6302 105.079 21.7018C105.541 22.7735 106.312 23.6838 107.292 24.3177C108.272 24.9516 109.418 25.2806 110.586 25.2631C111.753 25.2455 112.889 24.8823 113.849 24.2193C114.81 23.5563 115.553 22.6232 115.983 21.5382C116.414 20.4531 116.513 19.2648 116.268 18.1234C116.106 17.3655 115.795 16.647 115.355 16.009C114.915 15.371 114.353 14.8259 113.702 14.405C113.051 13.9841 112.324 13.6955 111.561 13.5557C110.799 13.416 110.016 13.4277 109.258 13.5904ZM111.211 22.6986C110.552 22.84 109.866 22.7828 109.24 22.5343C108.614 22.2858 108.075 21.8572 107.693 21.3026C107.31 20.748 107.1 20.0925 107.09 19.4187C107.08 18.745 107.27 18.0835 107.636 17.5177C108.002 16.9519 108.527 16.5074 109.146 16.2403C109.765 15.9732 110.449 15.8956 111.111 16.0172C111.774 16.1388 112.386 16.4542 112.869 16.9235C113.353 17.3928 113.686 17.995 113.827 18.6538C114.017 19.5371 113.847 20.4595 113.357 21.218C112.866 21.9765 112.094 22.5091 111.211 22.6986Z" fill="#000000"/>
<path d="M198.84 31.4688H106.485V159.072H198.84V31.4688Z" fill="#E0E0E0"/>
<g opacity="0.5">
<path opacity="0.5" d="M197.28 33.6265H108.047V156.917H197.28V33.6265Z" fill="url(#paint3_linear)"/>
</g>
<path d="M196.143 34.5352H109.182V155.102H196.143V34.5352Z" fill="white"/>
<path d="M174.347 29.3066H131.207V39.7568H174.347V29.3066Z" fill="url(#paint4_linear)"/>
<path d="M152.777 19.1064C149.446 19.1064 146.746 21.8706 146.746 25.2814C146.746 28.6922 149.446 31.4564 152.777 31.4564C156.107 31.4564 158.808 28.6922 158.808 25.2814C158.808 21.8706 156.107 19.1064 152.777 19.1064ZM152.777 28.8444C152.069 28.8612 151.372 28.6666 150.775 28.2855C150.178 27.9043 149.708 27.3539 149.425 26.7045C149.143 26.0551 149.06 25.3362 149.188 24.6396C149.316 23.943 149.648 23.3002 150.143 22.7934C150.638 22.2867 151.272 21.9388 151.966 21.7944C152.659 21.6499 153.38 21.7153 154.036 21.9824C154.692 22.2494 155.253 22.7058 155.648 23.2934C156.044 23.8811 156.255 24.5732 156.255 25.2814C156.262 26.2123 155.9 27.1079 155.248 27.7725C154.596 28.437 153.708 28.8163 152.777 28.8275V28.8444Z" fill="url(#paint5_linear)"/>
<path d="M173.892 28.8589H131.661V38.8483H173.892V28.8589Z" fill="#000000"/>
<path d="M152.777 19.1064C151.61 19.1064 150.468 19.4526 149.498 20.1012C148.527 20.7497 147.771 21.6716 147.324 22.7501C146.877 23.8286 146.76 25.0154 146.988 26.1603C147.216 27.3053 147.778 28.357 148.603 29.1824C149.429 30.0079 150.48 30.57 151.625 30.7978C152.77 31.0255 153.957 30.9086 155.036 30.4619C156.114 30.0152 157.036 29.2586 157.685 28.288C158.333 27.3174 158.679 26.1762 158.679 25.0088C158.679 23.4434 158.057 21.9421 156.95 20.8352C155.844 19.7283 154.342 19.1064 152.777 19.1064ZM152.777 28.4154C152.104 28.4146 151.446 28.2143 150.886 27.8398C150.327 27.4654 149.891 26.9335 149.633 26.3115C149.376 25.6894 149.309 25.005 149.44 24.3447C149.571 23.6844 149.895 23.0778 150.371 22.6015C150.847 22.1251 151.453 21.8005 152.113 21.6684C152.773 21.5363 153.458 21.6028 154.08 21.8595C154.702 22.1162 155.235 22.5515 155.61 23.1105C155.985 23.6695 156.186 24.3271 156.188 25.0004C156.187 25.4479 156.099 25.891 155.927 26.3043C155.756 26.7177 155.504 27.0932 155.188 27.4093C154.871 27.7255 154.495 27.9761 154.081 28.1469C153.668 28.3178 153.224 28.4054 152.777 28.4048V28.4154Z" fill="#000000"/>
<g opacity="0.5">
<path opacity="0.5" d="M56.008 162.521H55.2134V167.028H56.008V162.521Z" fill="#47E6B1"/>
<path opacity="0.5" d="M57.8657 165.173V164.378H53.3581V165.173H57.8657Z" fill="#47E6B1"/>
</g>
<g opacity="0.5">
<path opacity="0.5" d="M148.193 6.76221H147.398V11.2698H148.193V6.76221Z" fill="#47E6B1"/>
<path opacity="0.5" d="M150.05 9.41226V8.61768H145.543V9.41226H150.05Z" fill="#47E6B1"/>
</g>
<path opacity="0.5" d="M214.936 170.025C214.717 169.93 214.541 169.757 214.441 169.54C214.341 169.323 214.324 169.077 214.393 168.848C214.405 168.813 214.412 168.777 214.415 168.74C214.421 168.636 214.393 168.532 214.336 168.444C214.279 168.356 214.194 168.289 214.096 168.253C213.998 168.217 213.89 168.213 213.79 168.242C213.689 168.272 213.601 168.333 213.538 168.417C213.516 168.446 213.497 168.478 213.483 168.512C213.387 168.731 213.215 168.908 212.997 169.008C212.78 169.108 212.534 169.125 212.305 169.055C212.27 169.044 212.234 169.037 212.198 169.034C212.093 169.028 211.989 169.055 211.901 169.113C211.814 169.17 211.747 169.254 211.71 169.352C211.674 169.451 211.67 169.558 211.7 169.659C211.73 169.759 211.791 169.848 211.874 169.911C211.904 169.933 211.936 169.951 211.969 169.966C212.189 170.061 212.365 170.234 212.465 170.451C212.565 170.668 212.582 170.914 212.513 171.143C212.501 171.178 212.494 171.214 212.491 171.251C212.485 171.355 212.513 171.459 212.57 171.547C212.627 171.635 212.711 171.702 212.81 171.738C212.908 171.774 213.016 171.778 213.116 171.748C213.217 171.719 213.305 171.658 213.368 171.574C213.39 171.545 213.409 171.513 213.423 171.479C213.519 171.26 213.691 171.083 213.908 170.983C214.126 170.883 214.372 170.866 214.6 170.936C214.635 170.947 214.672 170.954 214.708 170.957C214.813 170.963 214.917 170.936 215.005 170.878C215.092 170.821 215.159 170.737 215.196 170.639C215.232 170.54 215.236 170.433 215.206 170.332C215.176 170.232 215.115 170.143 215.032 170.08C215.002 170.058 214.97 170.04 214.936 170.025Z" fill="#4D8AF0"/>
<path opacity="0.5" d="M80.8686 126.691C80.6495 126.596 80.473 126.423 80.3729 126.206C80.2727 125.989 80.2559 125.743 80.3255 125.514C80.3368 125.479 80.3439 125.443 80.3467 125.406C80.353 125.302 80.3254 125.198 80.268 125.11C80.2107 125.022 80.1266 124.955 80.0282 124.919C79.9299 124.883 79.8224 124.879 79.7218 124.908C79.6212 124.938 79.5328 124.999 79.4696 125.083C79.4477 125.112 79.4292 125.144 79.4147 125.178C79.3193 125.397 79.1466 125.574 78.9296 125.674C78.7126 125.774 78.4663 125.791 78.2376 125.721C78.2026 125.71 78.1665 125.703 78.1298 125.7C78.0252 125.694 77.9213 125.721 77.8335 125.779C77.7457 125.836 77.6787 125.92 77.6424 126.018C77.6062 126.117 77.6025 126.224 77.6321 126.325C77.6616 126.425 77.7228 126.514 77.8065 126.577C77.8359 126.599 77.8679 126.617 77.9016 126.632C78.1208 126.727 78.2972 126.9 78.3974 127.117C78.4975 127.334 78.5143 127.58 78.4447 127.809C78.4335 127.844 78.4264 127.88 78.4236 127.917C78.4173 128.021 78.4448 128.125 78.5022 128.213C78.5595 128.301 78.6436 128.368 78.742 128.404C78.8404 128.44 78.9478 128.444 79.0484 128.415C79.149 128.385 79.2374 128.324 79.3006 128.24C79.3226 128.211 79.341 128.179 79.3555 128.145C79.4509 127.926 79.6236 127.749 79.8406 127.649C80.0577 127.549 80.304 127.532 80.5326 127.602C80.5676 127.613 80.6038 127.62 80.6404 127.623C80.7451 127.629 80.849 127.602 80.9368 127.544C81.0245 127.487 81.0915 127.403 81.1278 127.305C81.1641 127.206 81.1677 127.099 81.1381 126.998C81.1086 126.898 81.0474 126.809 80.9637 126.746C80.9343 126.724 80.9024 126.706 80.8686 126.691Z" fill="#FDD835"/>
<path opacity="0.5" d="M192.536 21.1706C192.316 21.0752 192.14 20.9025 192.04 20.6855C191.94 20.4684 191.923 20.2221 191.993 19.9935C192.004 19.9585 192.011 19.9223 192.014 19.8857C192.02 19.781 191.992 19.6771 191.935 19.5893C191.878 19.5016 191.794 19.4346 191.695 19.3983C191.597 19.362 191.489 19.3584 191.389 19.3879C191.288 19.4175 191.2 19.4786 191.137 19.5624C191.115 19.5918 191.096 19.6237 191.082 19.6575C190.986 19.8766 190.814 20.0531 190.597 20.1532C190.38 20.2534 190.133 20.2702 189.905 20.2006C189.87 20.1893 189.833 20.1822 189.797 20.1794C189.692 20.1731 189.588 20.2007 189.5 20.258C189.413 20.3154 189.346 20.3995 189.309 20.4979C189.273 20.5962 189.27 20.7037 189.299 20.8043C189.329 20.9049 189.39 20.9933 189.473 21.0564C189.503 21.0784 189.535 21.0969 189.569 21.1114C189.788 21.2068 189.964 21.3794 190.064 21.5965C190.164 21.8135 190.181 22.0598 190.112 22.2885C190.1 22.3235 190.093 22.3596 190.091 22.3963C190.084 22.5009 190.112 22.6048 190.169 22.6926C190.227 22.7804 190.311 22.8474 190.409 22.8836C190.507 22.9199 190.615 22.9235 190.715 22.894C190.816 22.8644 190.904 22.8033 190.968 22.7196C190.99 22.6901 191.008 22.6582 191.023 22.6245C191.118 22.4053 191.291 22.2289 191.508 22.1287C191.725 22.0286 191.971 22.0117 192.2 22.0814C192.235 22.0926 192.271 22.0997 192.307 22.1025C192.412 22.1088 192.516 22.0813 192.604 22.0239C192.692 21.9666 192.759 21.8825 192.795 21.7841C192.831 21.6857 192.835 21.5783 192.805 21.4777C192.776 21.3771 192.714 21.2886 192.631 21.2255C192.601 21.2035 192.569 21.1851 192.536 21.1706Z" fill="#FDD835"/>
<path opacity="0.5" d="M223.72 74.81C224.599 74.81 225.311 74.0976 225.311 73.2187C225.311 72.3399 224.599 71.6274 223.72 71.6274C222.841 71.6274 222.128 72.3399 222.128 73.2187C222.128 74.0976 222.841 74.81 223.72 74.81Z" fill="#000000"/>
<path opacity="0.5" d="M100.746 166.141C101.625 166.141 102.337 165.429 102.337 164.55C102.337 163.671 101.625 162.958 100.746 162.958C99.8672 162.958 99.1548 163.671 99.1548 164.55C99.1548 165.429 99.8672 166.141 100.746 166.141Z" fill="#000000"/>
<path opacity="0.5" d="M207.377 109.206C208.256 109.206 208.969 108.493 208.969 107.614C208.969 106.735 208.256 106.023 207.377 106.023C206.499 106.023 205.786 106.735 205.786 107.614C205.786 108.493 206.499 109.206 207.377 109.206Z" fill="#000000"/>
<path opacity="0.5" d="M70.4014 28.7153C71.2802 28.7153 71.9926 28.0029 71.9926 27.124C71.9926 26.2452 71.2802 25.5327 70.4014 25.5327C69.5225 25.5327 68.8101 26.2452 68.8101 27.124C68.8101 28.0029 69.5225 28.7153 70.4014 28.7153Z" fill="#4D8AF0"/>
<path opacity="0.5" d="M53.5776 72.1235C54.4565 72.1235 55.1689 71.4111 55.1689 70.5322C55.1689 69.6534 54.4565 68.9409 53.5776 68.9409C52.6988 68.9409 51.9863 69.6534 51.9863 70.5322C51.9863 71.4111 52.6988 72.1235 53.5776 72.1235Z" fill="#47E6B1"/>
<defs>
<linearGradient id="paint0_linear" x1="138.061" y1="148.364" x2="112.196" y2="27.8174" gradientUnits="userSpaceOnUse">
<stop stop-color="#808080" stop-opacity="0.25"/>
<stop offset="0.54" stop-color="#808080" stop-opacity="0.12"/>
<stop offset="1" stop-color="#808080" stop-opacity="0.1"/>
</linearGradient>
<linearGradient id="paint1_linear" x1="23257" y1="-3014.98" x2="23148.6" y2="-3520.24" gradientUnits="userSpaceOnUse">
<stop stop-color="#808080" stop-opacity="0.25"/>
<stop offset="0.54" stop-color="#808080" stop-opacity="0.12"/>
<stop offset="1" stop-color="#808080" stop-opacity="0.1"/>
</linearGradient>
<linearGradient id="paint2_linear" x1="6827.93" y1="351.43" x2="6676.69" y2="-353.45" gradientUnits="userSpaceOnUse">
<stop stop-color="#808080" stop-opacity="0.25"/>
<stop offset="0.54" stop-color="#808080" stop-opacity="0.12"/>
<stop offset="1" stop-color="#808080" stop-opacity="0.1"/>
</linearGradient>
<linearGradient id="paint3_linear" x1="42618.6" y1="87635.1" x2="42618.6" y2="15706.3" gradientUnits="userSpaceOnUse">
<stop stop-color="#808080" stop-opacity="0.25"/>
<stop offset="0.54" stop-color="#808080" stop-opacity="0.12"/>
<stop offset="1" stop-color="#808080" stop-opacity="0.1"/>
</linearGradient>
<linearGradient id="paint4_linear" x1="20706.6" y1="1660.89" x2="20706.6" y2="1144.13" gradientUnits="userSpaceOnUse">
<stop stop-color="#808080" stop-opacity="0.25"/>
<stop offset="0.54" stop-color="#808080" stop-opacity="0.12"/>
<stop offset="1" stop-color="#808080" stop-opacity="0.1"/>
</linearGradient>
<linearGradient id="paint5_linear" x1="8190.78" y1="2197.52" x2="8190.78" y2="1475.78" gradientUnits="userSpaceOnUse">
<stop stop-color="#808080" stop-opacity="0.25"/>
<stop offset="0.54" stop-color="#808080" stop-opacity="0.12"/>
<stop offset="1" stop-color="#808080" stop-opacity="0.1"/>
</linearGradient>
</defs>
</svg>
