<svg width="42" height="37" viewBox="0 0 42 37" fill="none" xmlns="http://www.w3.org/2000/svg">
<path d="M21 0.6875C18.0886 0.6875 15.6899 2.68335 14.9941 5.375H0.6875V36.625H41.3125V5.375H27.0059C26.3101 2.68335 23.9114 0.6875 21 0.6875ZM21 3.8125C22.2634 3.8125 23.2339 4.41675 23.7344 5.375H18.2656C18.7661 4.41675 19.7366 3.8125 21 3.8125ZM3.8125 8.5H38.1875V22.5625H3.8125V8.5ZM3.8125 25.6875H38.1875V33.5H3.8125V25.6875Z" fill="#404040"/>
<path d="M21 17.875C20.1394 17.875 19.4375 18.5769 19.4375 19.4375C19.4375 20.2981 20.1394 21 21 21C21.8606 21 22.5625 20.2981 22.5625 19.4375C22.5625 18.5769 21.8606 17.875 21 17.875Z" fill="#FF5301"/>
</svg>