<svg width="29" height="29" viewBox="0 -4 29 34" fill="none" xmlns="http://www.w3.org/2000/svg">
<path d="M11 0C10.48 0 9.94055 0.180547 9.56055 0.560547C9.18055 0.940547 9 1.48 9 2V3H0V23H11.1992C11.0692 22.36 11 21.69 11 21H2V14.4395C2.59 14.7795 3.27 15 4 15H13.0098C13.5698 14.24 14.2498 13.56 15.0098 13H4C2.81 13 2 12.19 2 11V5H24V11C24 11.16 23.9909 11.3092 23.9609 11.4492C24.6809 11.6692 25.36 11.9698 26 12.3398V3H17V2C17 1.48 16.8195 0.940547 16.4395 0.560547C16.0595 0.180547 15.52 0 15 0H11ZM11 2H15V3H11V2ZM6 9V12H8V9H6ZM18 9V11.4609C18.32 11.3609 18.6467 11.2758 18.9805 11.207C19.3142 11.1383 19.655 11.0858 20 11.0508V9H18ZM21 13C16.59 13 13 16.59 13 21C13 25.41 16.59 29 21 29C25.41 29 29 25.41 29 21C29 16.59 25.41 13 21 13ZM21 15C24.32 15 27 17.68 27 21C27 24.32 24.32 27 21 27C17.68 27 15 24.32 15 21C15 17.68 17.68 15 21 15ZM20 16V22H25V20H22V16H20Z" fill="white"/>
</svg>