<svg width="41" height="44" viewBox="0 0 41 44" fill="none" xmlns="http://www.w3.org/2000/svg">
<path d="M0 0V40.625H25V37.5H3.125V3.125H18.75V12.5H28.125V15.625H31.25V10.3119L30.78 9.84497L21.405 0.469971L20.9381 0H0ZM21.875 5.31311L25.9369 9.375H21.875V5.31311ZM6.25 15.625V18.75H25V15.625H6.25ZM6.25 23.4375V26.5625H17.1875V23.4375H6.25ZM20.3125 23.4375V26.5625H25V23.4375H20.3125ZM6.25 29.6875V32.8125H17.1875V29.6875H6.25ZM20.3125 29.6875V32.8125H25V29.6875H20.3125Z" fill="#404040"/>
<path d="M32.8125 18.75V21.875C30.1562 22.3438 28.125 24.5312 28.125 27.3438C28.125 30.4688 30.4688 32.8125 33.5938 32.8125H35.1562C36.4062 32.8125 37.5 33.9062 37.5 35.1562C37.5 36.4062 36.4062 37.5 35.1562 37.5H29.6875V40.625H32.8125V43.75H35.9375V40.625C38.5938 40.1562 40.625 37.9688 40.625 35.1562C40.625 32.0312 38.2812 29.6875 35.1562 29.6875H33.5938C32.3438 29.6875 31.25 28.5938 31.25 27.3438C31.25 26.0938 32.3438 25 33.5938 25H39.0625V21.875H35.9375V18.75H32.8125Z" fill="#FF5301"/>
</svg>