<svg width="63" height="63" viewBox="0 0 63 63" fill="none" xmlns="http://www.w3.org/2000/svg">
<path d="M31.5625 8.23438C31.0564 8.23438 30.6033 8.26459 30.1123 8.2948C27.3932 8.44586 24.7345 9.00479 22.2571 9.98669L23.7073 13.6122C25.7919 12.7813 27.9899 12.2904 30.2936 12.162C30.6939 12.1393 31.1244 12.1016 31.5625 12.1016C35.2031 12.1016 38.6473 13.023 41.6534 14.6394L43.4662 11.2556C39.9162 9.34468 35.8527 8.23438 31.5625 8.23438ZM18.9941 11.5577C16.7207 12.872 14.6284 14.5639 12.8308 16.573C12.0302 17.4643 11.3277 18.4688 10.6555 19.4734C9.91531 20.5761 9.2733 21.7318 8.72192 22.9176L12.2266 24.4886C12.6873 23.4916 13.2311 22.5324 13.858 21.5883C14.4245 20.7348 15.059 19.919 15.7312 19.1713C17.2645 17.4567 19.0168 16.0518 20.9277 14.9415L18.9941 11.5577ZM46.9708 13.4913L44.6143 16.573C49.3349 20.2363 52.4242 25.818 52.7716 32.223C52.7792 32.3439 52.8622 33.4013 52.7716 35.1838L56.6388 35.4255C56.737 33.4844 56.6539 32.2079 56.6388 31.9813C56.2309 24.4358 52.545 17.8117 46.9708 13.4913ZM31.5625 14.0352V17.9023C39.7803 17.9023 46.5856 24.3074 47.0312 32.5251C47.0464 32.7442 47.2805 38.4543 45.0977 45.3352L48.7836 46.4833C51.1779 38.9377 50.9286 32.8877 50.8984 32.3439C50.3471 22.1094 41.797 14.0352 31.5625 14.0352ZM27.9974 14.3373C23.8357 15.1001 20.0591 17.2301 17.1814 20.4402C16.562 21.1275 15.9502 21.8979 15.4291 22.6759H15.4895V22.7363C13.2311 26.1428 12.0377 30.0855 12.2266 34.1566C12.2266 34.1944 12.2266 34.2397 12.2266 34.2775V35.2443L16.0938 35.3651V34.0962C15.92 30.7804 16.834 27.5703 18.692 24.7908C19.0999 24.1714 19.5304 23.5823 20.0214 23.0385C22.3402 20.4477 25.3992 18.7558 28.7225 18.144L27.9974 14.3373ZM30.777 19.8359C27.7029 20.0021 24.8402 21.2333 22.5592 23.2802L25.097 26.1805C26.7361 24.7077 28.8207 23.824 31.0187 23.7031C31.2226 23.688 31.3737 23.7031 31.5625 23.7031C32.6879 23.7031 33.768 23.892 34.765 24.2469L36.0944 20.6215C34.6895 20.123 33.126 19.8359 31.5625 19.8359C31.283 19.8359 31.0413 19.8208 30.777 19.8359ZM39.0552 22.0717L36.9403 25.3346C39.3951 26.9736 41.0567 29.655 41.2305 32.8273L45.0977 32.646C44.856 28.235 42.4918 24.3602 39.0552 22.0717ZM31.1395 25.6367C29.1002 25.75 27.1893 26.7093 25.8221 28.235C24.455 29.7607 23.7148 31.7472 23.8281 33.7941C23.8281 33.7865 23.9263 35.9694 23.0426 38.5072C22.1589 41.045 20.3915 43.9077 16.5771 45.7582C16.5771 45.7582 16.0107 46.015 15.3687 46.302C14.7266 46.589 13.9185 46.9214 13.7372 46.9667L14.5831 50.713C15.4442 50.5166 16.275 50.1314 17.0001 49.8066C17.7252 49.4819 18.269 49.2024 18.269 49.2024C23.103 46.8609 25.5427 43.0013 26.6681 39.7761C27.7935 36.5509 27.7104 33.9829 27.6953 33.6128V33.5524C27.6349 32.51 27.9597 31.5508 28.6621 30.7728C29.3645 29.9873 30.3011 29.5568 31.3208 29.5039C31.419 29.4964 31.4945 29.5039 31.5625 29.5039V25.6367C31.4039 25.6367 31.2755 25.6292 31.1395 25.6367ZM20.2631 25.8784C18.6618 28.2728 17.8838 31.1278 18.0273 34.0358C18.0273 34.0584 18.0273 34.0735 18.0273 34.0962C18.0349 34.2548 18.2011 38.477 14.0393 40.5012C13.9487 40.539 12.506 41.1055 10.293 41.1055V44.9727C13.3218 44.9727 15.6104 44.0663 15.6104 44.0663H15.6708L15.7312 44.0059C21.9625 40.9846 21.9021 34.2624 21.8945 33.9149V33.8545C21.7812 31.7472 22.3779 29.7758 23.526 28.0537L20.2631 25.8784ZM35.2484 26.5431L33.3752 29.9873C34.5233 30.6067 35.3542 31.7321 35.4297 33.1294C35.4448 33.4466 35.9811 45.4787 26.4868 53.13L28.9038 56.1512C39.9615 47.2461 39.3497 33.8545 39.2969 32.9481C39.1534 30.1837 37.5521 27.7818 35.2484 26.5431ZM31.5625 31.4375C30.4975 31.4375 29.6289 32.3061 29.6289 33.3711C29.6289 33.4164 29.6289 33.4542 29.6289 33.4919C29.6289 33.4919 29.8555 37.4724 27.8766 41.9514L31.3812 43.5225C33.6698 38.3486 33.5112 33.7034 33.4961 33.3711C33.4961 33.3258 33.4961 33.288 33.4961 33.2502C33.4281 32.2381 32.5897 31.4375 31.5625 31.4375ZM41.17 35.1838C40.9283 39.1115 39.6896 47.1631 33.9795 53.9155L36.8799 56.3929C43.3831 48.7114 44.7653 39.8441 45.0372 35.4255L41.17 35.1838ZM26.8494 44.0059C25.301 46.6117 22.9066 49.1193 19.115 50.9547L20.8069 54.4594C25.2934 52.2841 28.292 49.1042 30.1727 45.9395L26.8494 44.0059Z" fill="white"/>
</svg>