<svg width="42" height="38" viewBox="0 0 42 38" fill="none" xmlns="http://www.w3.org/2000/svg">
<path d="M12.4307 22.1249C10.8197 22.1312 9.59253 22.54 9.59253 22.54L9.56201 22.5522L0.699707 25.9519L3.80029 34.6555L11.5029 31.7014L22.6541 37.8415L41.9106 29.8642L40.7144 26.9833L22.8433 34.3808L11.7471 28.2712L5.66797 30.5966L4.66699 27.7768L10.5996 25.5002C10.6137 25.4939 11.3432 25.2499 12.4307 25.2499C13.5291 25.2499 14.8098 25.4938 15.9036 26.4829L15.9249 26.4951L15.931 26.5012C17.542 27.8996 18.757 28.8768 20.4476 29.4064C22.1383 29.9377 24.056 29.9988 27.2592 29.9863L27.2439 26.8613C24.1001 26.8738 22.458 26.7624 21.3845 26.4218C20.3095 26.0921 19.5471 25.4996 17.9971 24.1574L17.9788 24.1452C16.1709 22.5218 14.0229 22.1187 12.4307 22.1249Z" fill="#404040"/>
<path d="M22.5625 0.25V2.10852C22.3359 2.19055 22.1157 2.2908 21.9064 2.40454C21.4877 2.63202 21.108 2.91962 20.7772 3.25598C20.4464 3.59235 20.1647 3.97601 19.9471 4.39734C19.6208 5.02933 19.4375 5.74414 19.4375 6.5C19.4375 6.82031 19.472 7.13354 19.5352 7.43689C19.6614 8.04358 19.9071 8.60999 20.2462 9.10925C20.4158 9.35889 20.6071 9.59216 20.8199 9.80505C21.0328 10.0179 21.2661 10.2092 21.5157 10.3788C22.2646 10.8875 23.1641 11.1875 24.125 11.1875C24.3477 11.1875 24.5563 11.2296 24.7445 11.3065C24.9327 11.3834 25.0992 11.4965 25.2389 11.6361C25.3785 11.7758 25.4916 11.9423 25.5685 12.1305C25.6454 12.3187 25.6875 12.5273 25.6875 12.75C25.6875 13.418 25.3092 13.9628 24.7445 14.1935C24.5563 14.2704 24.3477 14.3125 24.125 14.3125C23.9023 14.3125 23.6937 14.2704 23.5055 14.1935C23.3173 14.1166 23.1508 14.0035 23.0111 13.8639C22.8715 13.7242 22.7584 13.5577 22.6815 13.3695C22.6046 13.1813 22.5625 12.9727 22.5625 12.75H19.4375C19.4375 13.002 19.4591 13.2504 19.4985 13.4916C19.538 13.7328 19.5938 13.9661 19.6694 14.1935C19.8965 14.8757 20.281 15.4895 20.7772 15.994C20.9426 16.1622 21.1193 16.3185 21.3082 16.4609C21.4972 16.6034 21.697 16.7317 21.9064 16.8455C22.1157 16.9592 22.3359 17.0594 22.5625 17.1415V19H25.6875V17.1415C27.5 16.4852 28.8125 14.7656 28.8125 12.75C28.8125 10.5078 27.1853 8.60193 25.0619 8.16016C24.7585 8.09705 24.4453 8.0625 24.125 8.0625C23.9023 8.0625 23.6937 8.02039 23.5055 7.94348C23.3173 7.86658 23.1508 7.75354 23.0111 7.61389C22.8715 7.47424 22.7584 7.30774 22.6815 7.11951C22.6046 6.93127 22.5625 6.72266 22.5625 6.5C22.5625 6.27734 22.6046 6.06873 22.6815 5.88049C22.7584 5.69226 22.8715 5.52576 23.0111 5.38611C23.2904 5.10681 23.6797 4.9375 24.125 4.9375C25.0156 4.9375 25.6875 5.60938 25.6875 6.5H28.8125C28.8125 6.24805 28.7909 5.9996 28.7515 5.75842C28.712 5.51724 28.6563 5.28394 28.5806 5.05652C28.1265 3.69202 27.0469 2.60071 25.6875 2.10852V0.25H22.5625Z" fill="#FF5301"/>
</svg>