<svg width="28" height="28" viewBox="0 0 28 28" fill="none" xmlns="http://www.w3.org/2000/svg">
<g filter="url(#filter0_ii)">
<path d="M8.33594 0.25C3.89746 0.25 0.25 3.89258 0.25 8.33594V19.6641C0.25 24.1025 3.89258 27.75 8.33594 27.75H19.6641C24.1025 27.75 27.75 24.1074 27.75 19.6641V8.33594C27.75 3.89746 24.1074 0.25 19.6641 0.25H8.33594ZM8.33594 2.75H19.6641C22.7549 2.75 25.25 5.24512 25.25 8.33594V19.6641C25.25 22.7549 22.7549 25.25 19.6641 25.25H8.33594C5.24512 25.25 2.75 22.7549 2.75 19.6641V8.33594C2.75 5.24512 5.24512 2.75 8.33594 2.75ZM21.3828 5.48438C20.7529 5.48438 20.25 5.98731 20.25 6.61719C20.25 7.24707 20.7529 7.75 21.3828 7.75C22.0127 7.75 22.5156 7.24707 22.5156 6.61719C22.5156 5.98731 22.0127 5.48438 21.3828 5.48438ZM14 6.5C9.87402 6.5 6.5 9.87402 6.5 14C6.5 18.126 9.87402 21.5 14 21.5C18.126 21.5 21.5 18.126 21.5 14C21.5 9.87402 18.126 6.5 14 6.5ZM14 9C16.7783 9 19 11.2217 19 14C19 16.7783 16.7783 19 14 19C11.2217 19 9 16.7783 9 14C9 11.2217 11.2217 9 14 9Z" fill="white" fill-opacity="0.8"/>
</g>
<defs>
<filter id="filter0_ii" x="-0.75" y="-0.75" width="29.5" height="29.5" filterUnits="userSpaceOnUse" color-interpolation-filters="sRGB">
<feFlood flood-opacity="0" result="BackgroundImageFix"/>
<feBlend mode="normal" in="SourceGraphic" in2="BackgroundImageFix" result="shape"/>
<feColorMatrix in="SourceAlpha" type="matrix" values="0 0 0 0 0 0 0 0 0 0 0 0 0 0 0 0 0 0 127 0" result="hardAlpha"/>
<feOffset dx="1" dy="1"/>
<feGaussianBlur stdDeviation="0.5"/>
<feComposite in2="hardAlpha" operator="arithmetic" k2="-1" k3="1"/>
<feColorMatrix type="matrix" values="0 0 0 0 0 0 0 0 0 0 0 0 0 0 0 0 0 0 0.1 0"/>
<feBlend mode="normal" in2="shape" result="effect1_innerShadow"/>
<feColorMatrix in="SourceAlpha" type="matrix" values="0 0 0 0 0 0 0 0 0 0 0 0 0 0 0 0 0 0 127 0" result="hardAlpha"/>
<feOffset dx="-1" dy="-1"/>
<feGaussianBlur stdDeviation="0.5"/>
<feComposite in2="hardAlpha" operator="arithmetic" k2="-1" k3="1"/>
<feColorMatrix type="matrix" values="0 0 0 0 1 0 0 0 0 1 0 0 0 0 1 0 0 0 0.1 0"/>
<feBlend mode="normal" in2="effect1_innerShadow" result="effect2_innerShadow"/>
</filter>
</defs>
</svg>