<svg width="16" height="16" viewBox="0 0 16 16" fill="none" xmlns="http://www.w3.org/2000/svg">
<path d="M7.5 1.5C6.67773 1.5 6 2.17773 6 3L6.00781 2.91797L5.51562 5.87305L4.57031 8.45898C4.55273 8.48242 4.53125 8.5 4.5 8.5H4V8H1.5V14.5H4V13H5.96289C6.78516 13 7.52539 12.6016 8 11.9824C8.47461 12.6016 9.21484 13 10.0371 13H12V14.5H14.5V8H12V8.5H11.5C11.4688 8.5 11.4473 8.48242 11.4297 8.45898L10.4844 5.87305L9.99219 2.91797L10 3C10 2.17773 9.32227 1.5 8.5 1.5C8.33008 1.5 8.15625 1.5332 8 1.61328C7.84375 1.5332 7.66992 1.5 7.5 1.5ZM7.48242 2.50781C7.49219 2.58008 7.5 2.74414 7.5 3V10.7188C7.36133 11.4609 6.72266 12 5.96289 12H4V9.5H4.5C4.89258 9.5 5.25781 9.28711 5.45117 8.94531L5.4707 8.9082L6.48438 6.12695L7 3.04102V3C7 2.72461 7.21094 2.51758 7.48242 2.50781ZM8.51758 2.50781C8.78906 2.51758 9 2.72461 9 3V3.04102L9.51562 6.12695L10.5293 8.9082L10.5488 8.94531C10.7422 9.28711 11.1074 9.5 11.5 9.5H12V12H10.0371C9.27734 12 8.63867 11.4609 8.5 10.7188V3C8.5 2.74414 8.50781 2.58008 8.51758 2.50781ZM2.5 9H3V13.5H2.5V9ZM13 9H13.5V13.5H13V9Z" fill="#333333" fill-opacity="0.55"/>
</svg>