<svg width="16" height="16" viewBox="0 0 16 16" fill="none" xmlns="http://www.w3.org/2000/svg">
<path d="M8 2L1.5 3.5V4.5L8 3L14.5 4.5V3.5L8 2ZM5 5C3.38672 5 1.8125 5.65625 1.8125 5.65625L1.5 5.79688V13.5H7.14062C7.31445 13.7988 7.63086 14 8 14C8.36914 14 8.68555 13.7988 8.85938 13.5H14.5V5.79688L14.1875 5.65625C14.1875 5.65625 12.6133 5 11 5C9.54102 5 8.25977 5.49023 8 5.59375C7.74023 5.49023 6.45898 5 5 5ZM5 6C5.9668 6 7 6.3125 7.5 6.48438V12.0469C6.94336 11.8633 6.0293 11.6094 5 11.6094C3.94922 11.6094 3.09375 11.8516 2.5 12.0469V6.48438C2.88477 6.3457 3.90039 6 5 6ZM11 6C12.0996 6 13.1152 6.3457 13.5 6.48438V12.0469C12.9062 11.8516 12.0508 11.6094 11 11.6094C9.9707 11.6094 9.05664 11.8633 8.5 12.0469V6.48438C9 6.3125 10.0332 6 11 6Z" fill="#333333" fill-opacity="0.55"/>
</svg>