<svg width="18" height="18" viewBox="0 0 18 18" fill="none" xmlns="http://www.w3.org/2000/svg">
<path d="M9 2.25C5.27783 2.25 2.25 5.27783 2.25 9C2.25 12.7222 5.27783 15.75 9 15.75C11.2786 15.75 13.2979 14.6184 14.5195 12.8848L13.6055 12.2344C12.5881 13.6802 10.9072 14.625 9 14.625C5.88647 14.625 3.375 12.1135 3.375 9C3.375 5.88647 5.88647 3.375 9 3.375C10.9072 3.375 12.5859 4.31982 13.6055 5.76562L14.5195 5.11523C13.2979 3.38159 11.2786 2.25 9 2.25ZM13.1309 6.3457L12.3223 7.1543L13.6055 8.4375H6.75V9.5625H13.6055L12.3223 10.8457L13.1309 11.6543L15.3809 9.4043L15.7676 9L15.3809 8.5957L13.1309 6.3457Z" fill="#333333"/>
</svg>