<svg width="16" height="17" viewBox="0 0 16 17" fill="none" xmlns="http://www.w3.org/2000/svg">
<path d="M8 2.23706C5.21094 2.23706 2.87109 4.15308 2.20312 6.73706H3.23438C3.87305 4.70972 5.76562 3.23706 8 3.23706C10.7578 3.23706 13 5.47925 13 8.23706C13 10.9949 10.7578 13.2371 8 13.2371C5.76562 13.2371 3.87305 11.7644 3.23438 9.73706H2.20312C2.87109 12.321 5.21094 14.2371 8 14.2371C11.3086 14.2371 14 11.5457 14 8.23706C14 4.92847 11.3086 2.23706 8 2.23706ZM7.67188 5.87769L6.95312 6.59644L8.09375 7.73706H2V8.73706H8.09375L6.95312 9.87769L7.67188 10.5964L9.67188 8.59644L10.0156 8.23706L9.67188 7.87769L7.67188 5.87769Z" fill="white"/>
</svg>